<svg width="32" height="32" viewBox="0 0 32 32" fill="none" xmlns="http://www.w3.org/2000/svg">
<rect width="32" height="32" rx="6" fill="white"/>
<rect width="32" height="32" rx="6" fill="#6E8BB7" fill-opacity="0.12"/>
<path fill-rule="evenodd" clip-rule="evenodd" d="M21.707 21.7071C21.5195 21.8946 21.2652 21.9999 21 21.9999C20.7349 21.9999 20.4806 21.8946 20.293 21.7071L15.293 16.7071C15.1056 16.5196 15.0002 16.2652 15.0002 16.0001C15.0002 15.7349 15.1056 15.4806 15.293 15.2931L20.293 10.2931C20.3853 10.1976 20.4956 10.1214 20.6176 10.069C20.7396 10.0166 20.8709 9.98898 21.0036 9.98783C21.1364 9.98668 21.2681 10.012 21.391 10.0623C21.5139 10.1125 21.6255 10.1868 21.7194 10.2807C21.8133 10.3746 21.8876 10.4862 21.9379 10.6091C21.9881 10.732 22.0134 10.8637 22.0123 10.9965C22.0111 11.1293 21.9835 11.2605 21.9311 11.3825C21.8787 11.5045 21.8025 11.6148 21.707 11.7071L17.414 16.0001L21.707 20.2931C21.8945 20.4806 21.9998 20.7349 21.9998 21.0001C21.9998 21.2652 21.8945 21.5196 21.707 21.7071ZM15.707 21.7071C15.5195 21.8946 15.2652 21.9999 15 21.9999C14.7349 21.9999 14.4806 21.8946 14.293 21.7071L9.29303 16.7071C9.10556 16.5196 9.00024 16.2652 9.00024 16.0001C9.00024 15.7349 9.10556 15.4806 9.29303 15.2931L14.293 10.2931C14.4816 10.1109 14.7342 10.0101 14.9964 10.0124C15.2586 10.0147 15.5094 10.1199 15.6948 10.3053C15.8803 10.4907 15.9854 10.7415 15.9877 11.0037C15.99 11.2659 15.8892 11.5185 15.707 11.7071L11.414 16.0001L15.707 20.2931C15.8945 20.4806 15.9998 20.7349 15.9998 21.0001C15.9998 21.2652 15.8945 21.5196 15.707 21.7071Z" fill="#1A2024"/>
</svg>
