<svg width="24" height="24" viewBox="0 0 24 24" fill="none" xmlns="http://www.w3.org/2000/svg">
<path d="M12.0003 17.0001C12.0003 17.2652 12.1056 17.5196 12.2931 17.7071C12.4806 17.8946 12.7349 17.9999 13.0001 17.9999C13.2652 17.9999 13.5196 17.8946 13.7071 17.7071L18.7071 12.7071C18.8946 12.5196 18.9999 12.2652 18.9999 12.0001C18.9999 11.7349 18.8946 11.4806 18.7071 11.2931L13.7071 6.29308C13.6148 6.19757 13.5045 6.12139 13.3825 6.06898C13.2605 6.01657 13.1293 5.98898 12.9965 5.98783C12.8637 5.98668 12.732 6.01198 12.6091 6.06226C12.4862 6.11254 12.3746 6.18679 12.2807 6.28069C12.1868 6.37458 12.1125 6.48623 12.0623 6.60913C12.012 6.73202 11.9867 6.8637 11.9878 6.99648C11.989 7.12926 12.0166 7.26048 12.069 7.38249C12.1214 7.50449 12.1976 7.61483 12.2931 7.70708L16.5861 12.0001L12.2931 16.2931C12.1056 16.4806 12.0003 16.7349 12.0003 17.0001Z" fill="#1A2024"/>
<path d="M6.00024 17C6.00024 17.2652 6.10556 17.5195 6.29303 17.707C6.48056 17.8945 6.73487 17.9998 7.00003 17.9998C7.26519 17.9998 7.5195 17.8945 7.70703 17.707L12.707 12.707C12.8945 12.5195 12.9998 12.2652 12.9998 12C12.9998 11.7349 12.8945 11.4806 12.707 11.293L7.70703 6.29304C7.51843 6.11088 7.26583 6.01009 7.00363 6.01237C6.74143 6.01465 6.49062 6.11981 6.30521 6.30522C6.1198 6.49063 6.01463 6.74144 6.01236 7.00364C6.01008 7.26584 6.11087 7.51844 6.29303 7.70704L10.586 12L6.29303 16.293C6.10556 16.4806 6.00024 16.7349 6.00024 17Z" fill="#1A2024"/>
</svg>
